<?xml version="1.0" encoding="UTF-8"?>
<svg id="Layer_1" data-name="Layer 1" xmlns="http://www.w3.org/2000/svg" viewBox="0 0 700 1080">
  <defs>
    <style>
      .cls-1 {
        fill: #e4a86c;
      }

      .cls-2, .cls-3 {
        fill: #efdfd1;
      }

      .cls-4 {
        fill: #404557;
      }

      .cls-5 {
        fill: #497a72;
      }

      .cls-6 {
        stroke: #404557;
      }

      .cls-6, .cls-7 {
        fill: none;
      }

      .cls-6, .cls-7, .cls-3 {
        stroke-miterlimit: 10;
      }

      .cls-7, .cls-3 {
        stroke: #efdfd1;
      }

      .cls-3 {
        stroke-width: 12px;
      }
    </style>
  </defs>
  <g>
    <path class="cls-3" d="m395.66,595.99c-4.41,4.66-8.75,9.39-13,14.19,3.62-5.31,7.94-10.12,13-14.19Z"/>
    <path class="cls-3" d="m376.48,593.35c0,.16-.01.32-.02.47.37-.38.75-.76,1.13-1.14-.37.22-.74.44-1.11.67Zm3.54-28.87c-.53,2.5-1,5.02-1.41,7.54,6.44-4.55,12.96-9.01,19.46-13.46-6.09,1.75-12.11,3.72-18.05,5.92Zm2.64,45.7c4.25-4.8,8.59-9.53,13-14.19-5.06,4.07-9.38,8.88-13,14.19Zm6.3-73.06c-.09.21-.19.43-.28.64-.27.6-.53,1.2-.78,1.8.86-.32,1.72-.63,2.58-.93.89-.32,1.79-.63,2.69-.94-1.4-.27-2.81-.45-4.21-.57Z"/>
    <path class="cls-3" d="m181.55,533.91c6.76-4.37,14.2-7.3,21.96-9.34-9.85,3.87-19.38,8.48-28.38,13.95,2.09-1.61,4.21-3.18,6.42-4.61Z"/>
    <g>
      <path class="cls-3" d="m694,447.15v-4.2c-9.35,2.34-18.63,6.41-28.26,7.3-5.87.53-11.83-.13-17.68.61-22.16,2.82-38.35,24.9-60.57,27.15,26.04-17.91,52.63-35.02,79.72-51.29-28.01,13.89-55.61,28.63-82.74,44.18,28.57-17.76,52.13-43.48,67.33-73.5-5.71-.48-10.61,4.24-13.21,9.34-2.6,5.11-3.76,10.89-6.72,15.79-2.7,4.45-6.72,7.92-10.68,11.31-15.19,12.99-30.37,25.98-45.56,38.98,9.88-23.57,36.18-40.46,36.72-66.01-10.03,15-18.16,31.18-28.25,46.14-5.41,8.03-11.81,15.3-17.85,22.82-.12-.08-.25-.15-.38-.23-.09-.06-.19-.11-.28-.17-33.79-19.93-77.54-21.05-112.99-4.26-8.43,3.99-16.36,8.95-23.67,14.69-7.67-10.71-16.89-20.26-24.28-31.22-10.09-14.96-18.22-31.14-28.25-46.14.54,25.55,26.84,42.44,36.72,66.01-15.18-13-30.37-25.99-45.56-38.98-3.95-3.39-7.98-6.86-10.67-11.31-2.97-4.9-4.13-10.69-6.73-15.79-2.59-5.1-7.5-9.82-13.21-9.34,15.2,30.02,38.77,55.74,67.33,73.5-27.13-15.55-54.72-30.29-82.74-44.18,27.09,16.27,53.68,33.38,79.72,51.29-22.22-2.25-38.41-24.33-60.57-27.15-5.85-.74-11.8-.08-17.68-.61-15.34-1.41-29.85-10.94-45.07-8.59,7.05,4.49,15.73,5.33,24,6.53,29.25,4.24,57.62,14.44,82.88,29.81-20.74,3.62-41.84-1.99-62.14-7.54-17.86-4.89-35.71-9.78-53.56-14.67-7.18-1.97-17.22-2.56-19.67,4.47,17.9-.26,34.9,7.17,51.25,14.45,21.31,9.5,42.62,18.99,63.93,28.49-13.21-2.14-26.69-1.54-40.05-.83-29.18,1.54-58.48,3.61-86.96,10.13-11.57,2.66-23.03,6.08-34.1,10.43,10.05-2.66,20.64-3.86,31.02-4.78,35.26-3.14,71.02-4.08,105.84,2.27.53.1,1.05.19,1.57.3-15.73,2.64-31.55,7.24-44.6,9.48,9.07,5.58,20.72,2,30.9-1.16,8.07-2.51,16.37-4.67,24.74-5.88,4.92,1.24,9.69,2.66,14.33,4.24-5.17,2.08-10.22,4.5-15.24,6.92-17.01,8.18-34.03,16.36-50.4,25.76-10.58,6.07-21.39,13.2-26.73,24.17,23.12-13.2,46.72-25.57,70.72-37.1,13.05-6.26,27.16-12.4,41.38-11.79.63.03,1.27.07,1.91.13,1.4.12,2.81.3,4.21.57-.9.31-1.8.62-2.69.94-.86.3-1.72.61-2.58.93-47.84,17.61-89.77,50.94-117.62,93.65,7.62-.96,13.53-6.82,19.08-12.13,25.91-24.82,57-44.19,90.66-56.6,5.94-2.2,11.96-4.17,18.05-5.92-6.5,4.45-13.02,8.91-19.46,13.46h0c-14.7,10.39-29.04,21.24-42.12,33.56-18.82,17.73-35.08,38.77-43.96,63.05,30-22.8,51.78-55.77,83.95-75.28.37-.23.74-.45,1.11-.67-.38.38-.76.76-1.13,1.14-14.58,14.68-27.82,30.68-39.52,47.74-9.88,14.4-19,31.66-14.72,48.59,16.32-25.61,34.5-50.04,54.35-73.03.05,1.11.1,2.21.17,3.32-4.36,8.98-7.15,18.84-8.61,28.7-2.98,20.21-.9,40.79,1.19,61.11l4.68,45.57c.88-18.03,3.4-35.98,7.53-53.56.85-3.64,1.78-7.26,2.76-10.86.64,4.5,1.33,8.99,2.05,13.47,1.02,6.35,2.1,12.8,1.35,19.19-.7,5.91-2.95,11.51-5.17,17.04l-6.96,17.28c-13.99,13.95-58.53,59.65-97.56,113.62-35.17,48.64-36.18,132-34.47,170.88-2.75,10.43-3.25,20.65.77,29.12h384.35c14.88,0,28.56-5.22,39.28-13.94,14.08-11.42,23.07-28.87,23.07-48.41v-203.9c-6.87-16.15-14.87-31.83-23.92-46.87-7.79-12.95-16.49-25.82-24.6-38.9,7.84-15.85,14.06-32.36,14.82-49.88.72-16.44-3.47-32.66-7.62-48.59,8.72,21.91,14.41,45.02,16.84,68.48,1.35,12.93,1.76,26.21,6.51,38.31,7.64-44.75.56-91.89-19.89-132.42,17.77,17.5,29.23,40.41,37.86,63.84.25.65.48,1.31.72,1.96-.24-1.21-.48-2.41-.72-3.62-2.3-11.56-4.79-23.12-9.07-34.08,3.06,4.39,6.09,8.8,9.07,13.25v-14.27c-3.56-6.77-7.51-13.36-11.42-19.89-3.93-6.54-7.87-13.11-12.61-19.1-11.35-14.35-27.12-24.99-44.4-31.03,15.63-.2,29.81,8.53,42.97,16.97,8.48,5.43,16.97,10.86,25.46,16.3v-11.85c-15.92-19.66-39.02-33.56-64.01-37.71,8.57-.25,17.13-.51,25.7-.76,6.69-.2,13.47-.39,20,1.09,3.4.77,10.49,4.79,18.31,9.1v-17.65c-1.76-1.18-3.16-2.04-4.01-2.44-7.06-3.29-14.39-6-21.9-8.07,9.59-1.14,19.24-1.79,28.91-2.06v-11.57c-9.93-.81-19.89-1.4-29.83-1.92-13.36-.71-26.84-1.31-40.05.83,21.31-9.49,42.62-18.99,63.94-28.49,1.97-.88,3.95-1.76,5.94-2.63v-9.27l-27.93,7.65c-20.29,5.55-41.4,11.16-62.13,7.54,25.25-15.37,53.62-25.57,82.87-29.81,2.38-.34,4.79-.66,7.19-1.04Zm-311.34,163.03c3.62-5.31,7.94-10.12,13-14.19-4.41,4.66-8.75,9.39-13,14.19Z"/>
      <path class="cls-3" d="m158.48,550.1c5.3-4.23,10.87-8.09,16.65-11.58-5.39,4.14-10.58,8.57-16.65,11.58Z"/>
    </g>
    <path class="cls-3" d="m393.17,537.69c-.9.31-1.8.62-2.69.94-.6-.3-1.2-.59-1.8-.87-.54-.26-1.09-.52-1.63-.77.63.03,1.27.07,1.91.13,1.4.12,2.81.3,4.21.57Z"/>
  </g>
  <path class="cls-5" d="m653.19,512.52c-3.96,2.03-7.92,4.05-11.89,6.07-.16.03-.31.06-.47.1l12.36-6.17Z"/>
  <path class="cls-5" d="m692,661.72c-8.63-23.43-20.09-46.34-37.86-63.84,20.45,40.53,27.53,87.67,19.89,132.42-4.75-12.1-5.16-25.38-6.51-38.31-2.43-23.46-8.12-46.57-16.84-68.48,4.15,15.93,8.34,32.15,7.62,48.59-1.11,25.56-13.84,48.97-26.26,71.33,1.43-28.19,2.83-56.8-3.42-84.33-3.55-15.65-9.51-30.62-15.45-45.53-3.25-8.18-6.53-16.4-11.03-23.97-6.76-11.4-16.1-21.02-23.91-31.72-.79-1.08-1.58-2.2-1.89-3.5-1.24-5.05,4.73-8.62,9.6-10.48,18.97-7.23,37.24-16.13,55.36-25.31,6.8-1.54,11.54-1.87,19.26-.08,9.44,2.2,18.65,5.38,27.43,9.48.85.4,2.25,1.26,4.01,2.44v17.65c-7.82-4.31-14.91-8.33-18.31-9.1-6.53-1.48-13.31-1.29-20-1.09-8.57.25-17.13.51-25.7.76,24.99,4.15,48.09,18.05,64.01,37.71v11.85c-8.49-5.44-16.98-10.87-25.46-16.3-13.16-8.44-27.34-17.17-42.97-16.97,17.28,6.04,33.05,16.68,44.4,31.03,4.74,5.99,8.68,12.56,12.61,19.1,3.91,6.53,7.86,13.12,11.42,19.89v14.27c-2.98-4.45-6.01-8.86-9.07-13.25,4.28,10.96,6.77,22.52,9.07,34.08.24,1.21.48,2.41.72,3.62-.24-.65-.47-1.31-.72-1.96Z"/>
  <path class="cls-5" d="m298.35,533.83c9.07,5.58,20.72,2,30.9-1.16,16.77-5.21,34.56-8.91,51.83-5.78-9.79,2.32-18.94,6.71-28,11.07-17.01,8.18-34.03,16.36-50.4,25.76-10.58,6.07-21.39,13.2-26.73,24.17,23.13-13.2,46.72-25.57,70.72-37.09,14.92-7.16,31.23-14.17,47.49-11.1-50.02,17.05-94.02,51.25-122.89,95.52,7.62-.96,13.53-6.82,19.07-12.13,30.48-29.2,68.14-50.85,108.71-62.52-21.33,14.61-42.76,29.29-61.58,47.02-18.82,17.73-35.08,38.77-43.96,63.05,30.34-23.06,52.27-56.53,85.06-75.95-15.02,14.99-28.65,31.38-40.65,48.88-9.88,14.4-19,31.66-14.72,48.59,21.42-33.62,46.05-65.19,73.44-94.16-15.91,12.81-24.55,32.95-27.53,53.16-2.98,20.21-.9,40.78,1.19,61.11,1.56,15.19,3.12,30.38,4.68,45.57.88-18.03,3.4-35.99,7.53-53.57,3.76-16.01,8.83-31.68,13.9-47.32,7.46-23.04,14.93-46.07,22.39-69.11,5.42-16.72,6.11-29.73-6.99-42.57-7.9-7.75-17.39-16.18-28.01-19.9-25.2-8.81-60.44,4.18-85.47,8.47Z"/>
  <path class="cls-4" d="m668.08,760.88c-7.79-12.95-16.49-25.82-24.6-38.9-3.57-5.76-7.02-11.56-10.23-17.43-11.05-20.17-19.25-41.15-19.47-64.01-.07-7.09.66-14.12,1.7-21.14h0c2.18-14.74,5.72-29.38,6.14-44.27.39-13.99-2.2-27.91-7.24-40.93-.26-.69-.54-1.38-.81-2.06-9.22-22.51-25.74-42.16-46.7-54.6-.09-.06-.19-.11-.28-.17-33.79-19.93-77.54-21.05-112.99-4.26-8.43,3.99-16.36,8.95-23.67,14.69-14.68,11.53-26.89,26.24-35.73,42.74-1.52,2.81-2.93,5.67-4.24,8.58-.09.21-.19.43-.28.64-.27.6-.53,1.2-.78,1.8-2.79,6.54-5.07,13.29-6.79,20.19-.39,1.57-.75,3.15-1.09,4.73-.53,2.5-1,5.02-1.41,7.54h0c-1.14,7.06-1.81,14.18-2.13,21.33,0,.16-.01.32-.02.47-.32,7.74-.23,15.51.11,23.29h0c.05,1.12.1,2.22.17,3.33.38,7.17.96,14.34,1.63,21.47,1.54,16.54,3.51,33.05,5.92,49.49.64,4.5,1.33,8.99,2.05,13.47,1.02,6.35,2.1,12.8,1.35,19.19-.7,5.91-2.95,11.51-5.17,17.04-16.6,41.2-33.2,82.41-49.8,123.62-11.12,27.6-22.29,55.29-36.97,81.17-9.74,17.17-20.79,33.55-30.58,50.69-10.43,18.26-31.52,52.97-20.87,75.42h384.35c14.88,0,28.56-5.22,39.28-13.94,14.08-11.42,23.07-28.87,23.07-48.41v-203.9c-6.87-16.15-14.87-31.83-23.92-46.87Z"/>
  <path class="cls-1" d="m440.5,664.14c19.18,8.72,21.9,26.07,21.81,38.07-.04,5.32,6.55,7.86,10.03,3.84,13.13-15.18,21.05-39.51,35.31-51.93,5.52-4.8,12.28-8.59,14.15-16.44.91-3.84-.57-7.99-3.96-10-7.13-4.24-14.93,4.65-23.08,5.1-5.17.29-10.03-3.04-12.91-7.35-2.88-4.31-4.12-9.48-5.12-14.57-.92-4.66-2.77-10.47-7.96-10.27-1.21.05-2.38.49-3.4,1.13-10.27,6.49-7.96,20.05-13.48,29.27-4.21,7.02-10.89,7.55-18.42,7.32-3.96-.12-11.01-2.22-12.19,2.8-1.81,7.7,13.54,20.45,19.23,23.03Z"/>
  <path class="cls-2" d="m512.17,584.14c2.95-4.73,6.13-9.68,11.08-12.23,6.1-3.15,13.88-1.82,19.41,2.24,5.53,4.07,8.97,10.48,10.66,17.13.52,2.06.89,4.22.4,6.29-.53,2.23-2.02,4.1-3.59,5.77-7.42,7.88-19.05,13.01-29.2,9.25-3.4-1.26-6.38-3.41-9.21-5.67-9.97-8-5.16-13.76.45-22.77Z"/>
  <path class="cls-2" d="m446.78,588.18c-2.95-4.73-6.13-9.68-11.08-12.23-6.1-3.15-13.88-1.82-19.41,2.24-5.53,4.07-8.97,10.48-10.66,17.13-.52,2.06-.89,4.22-.4,6.29.53,2.23,2.02,4.1,3.59,5.77,7.42,7.88,19.05,13.01,29.2,9.25,3.4-1.26,6.38-3.41,9.21-5.67,9.97-8,5.16-13.76-.45-22.77Z"/>
  <circle class="cls-4" cx="523.59" cy="597.95" r="14.53"/>
  <circle class="cls-4" cx="429.21" cy="606.37" r="14.53"/>
  <path class="cls-2" d="m668.55,1060.37c-10.66,8.53-24.19,13.63-38.9,13.63h-355.65c1.61-21.42,4.29-43.96,18.41-59.16,29.59-31.84,65.43-84.89,84.59-120.84,32.05-60.14,35.9-104.17,78.93-146.93,17.75-17.63,40.41-35.76,64.96-30.94,18.15,3.57,31.39,18.8,42.74,33.4,21.86,28.13,70.9,82.38,86.37,114.47,28.8,59.76,14.97,129.67,18.55,196.37Z"/>
  <path class="cls-4" d="m381,756s-55,53-102,118-33,192-33,192c0,0,80-89,97-150s38-160,38-160Z"/>
  <path class="cls-6" d="m523.58,632.73c-6.83.73-13.79,1.5-20.04,4.32-10.82,4.89-18.06,15.21-24.12,25.41-7.52,12.64-16.8,37.46-14.91,52.04,0,0-6.43-64.47-30-78"/>
  <path class="cls-2" d="m422.15,598.45c1.59-1.14,3.51-1.74,5.43-2.09-1.41,1.34-2.84,2.73-3.67,4.49-.46.99-.76,2.13-1.62,2.81-1.31,1.03-2.84.45-3.08-1.02s1.94-3.48,2.93-4.2Z"/>
  <path class="cls-2" d="m516.54,590.02c1.59-1.14,3.51-1.74,5.43-2.09-1.41,1.34-2.84,2.73-3.67,4.49-.46.99-.76,2.13-1.62,2.81-1.31,1.03-2.84.45-3.08-1.02s1.94-3.48,2.93-4.2Z"/>
  <path class="cls-7" d="m245.5,1074.5c-4.48-51.79-3.46-110.47,6.16-161.55,4.15-22.04,36.77-30.53,48.84-49.45,26.08-40.89,49.61-72.41,83.69-106.92,5.17-5.24,10.05-11.02,12.54-17.95,4.39-12.23.65-25.68-2.48-38.29-8.63-34.68-12.54-70.53-11.59-106.25.43-16.21,1.9-32.61,7.42-47.86.59-1.64,1.42-3.19,1.91-4.86,9.48-32.14,39.52-50.86,39.52-50.86,13.58-8.64,30.19-13.08,47.83-19.51,25.31-9.22,54.89-8.92,78.03,4.87,20.5,12.21,34.89,19.22,47.52,39.47,6.97,11.18,14.11,22.81,15.79,35.88,2.83,22.09-10.39,43.09-12.16,65.29-1.79,22.43,8.14,43.94,17.83,64.24,15.57,32.62,31.27,65.45,52.57,94.65l13.4,26.64"/>
  <path class="cls-5" d="m687.81,450.19c-29.25,4.24-57.62,14.44-82.87,29.81,20.73,3.62,41.84-1.99,62.13-7.54l27.93-7.65v9.27c-1.99.87-3.97,1.75-5.94,2.63-21.32,9.5-42.63,19-63.94,28.49,13.21-2.14,26.69-1.54,40.05-.83,9.94.52,19.9,1.11,29.83,1.92v11.57c-15.31.43-30.55,1.81-45.63,4.56-37,6.74-64.68,22.73-94.87,43.76-6.5-23.82-9.98-56.23,4.71-77.72,7.97-11.66,17.98-21.78,25.89-33.51,10.09-14.96,18.22-31.14,28.25-46.14-.54,25.55-26.84,42.44-36.72,66.01,15.19-13,30.37-25.99,45.56-38.98,3.96-3.39,7.98-6.86,10.68-11.31,2.96-4.9,4.12-10.68,6.72-15.79,2.6-5.1,7.5-9.82,13.21-9.34-15.2,30.02-38.76,55.74-67.33,73.5,27.13-15.55,54.73-30.29,82.74-44.18-27.09,16.27-53.68,33.38-79.72,51.29,22.22-2.25,38.41-24.33,60.57-27.15,5.85-.74,11.81-.08,17.68-.61,9.63-.89,18.91-4.96,28.26-7.3v4.2c-2.4.38-4.81.7-7.19,1.04Z"/>
  <path class="cls-5" d="m377.4,410.44c.54,25.54,26.84,42.44,36.72,66-15.19-12.99-30.37-25.99-45.56-38.98-3.96-3.39-7.98-6.85-10.68-11.31-2.96-4.9-4.12-10.68-6.72-15.79s-7.5-9.82-13.21-9.34c15.2,30.01,38.76,55.73,67.33,73.5-27.13-15.55-54.73-30.29-82.74-44.19,27.09,16.27,53.68,33.38,79.72,51.3-22.22-2.26-38.41-24.33-60.57-27.15-5.85-.75-11.81-.08-17.68-.61-15.34-1.4-29.85-10.93-45.07-8.58,7.06,4.48,15.73,5.32,24,6.52,29.25,4.24,57.63,14.45,82.88,29.81-20.73,3.62-41.84-1.98-62.14-7.54-17.85-4.89-35.71-9.78-53.56-14.67-7.18-1.97-17.22-2.56-19.66,4.48,17.89-.26,34.9,7.16,51.24,14.45,21.31,9.5,42.62,18.99,63.93,28.49-13.21-2.14-26.69-1.54-40.05-.83-29.18,1.54-58.48,3.61-86.96,10.13-28.48,6.53-56.31,17.73-79.13,35.97,8.42-4.19,15.16-11.1,23.06-16.19,15.52-10.01,34.6-12.49,52.99-14.13,35.26-3.14,71.02-4.08,105.84,2.27,37,6.74,64.69,22.74,94.87,43.77,6.51-23.82,9.98-56.23-4.71-77.72-7.97-11.66-17.98-21.78-25.89-33.51-10.09-14.96-18.21-31.14-28.25-46.14Z"/>
  <path class="cls-1" d="m556,582.52c-3.46-5.75-6.98-11.57-11.8-16.23-3.26-3.15-8.41-7.17-12.98-7.08-.02,3.91,9.66,7.39,12.66,9.78,4.71,3.76,9,8.35,12.12,13.53Z"/>
  <path class="cls-1" d="m454.35,587.31c-3.46-5.75-6.98-11.57-11.8-16.23-3.26-3.15-8.41-7.17-12.98-7.08-.02,3.91,9.66,7.39,12.66,9.78,4.71,3.76,9,8.35,12.12,13.53Z"/>
</svg>