<?xml version="1.0" encoding="UTF-8"?>
<svg id="Layer_1" data-name="Layer 1" xmlns="http://www.w3.org/2000/svg" viewBox="0 0 1080 1080">
  <defs>
    <style>
      .cls-1 {
        fill: #e4a86c;
      }
    </style>
  </defs>
  <path class="cls-1" d="m271.76,564.16c0,.38,0,.76-.02,1.15v.02c-.2,12.08-2.43,23.91-7.58,35.04-7.01,15.13-18.44,25.81-34,31.79-6.63,2.55-13.63,4.42-20.63,5.68-6.39,1.15-13.01,1.48-19.52,1.42-5.29-.05-10.6-1.13-15.86-1.95-10.58-1.64-20.47-5.19-29.48-10.98-1.45-.92-2.4-.93-3.93-.05-3.81,2.18-7.64,4.52-11.76,5.91-6.84,2.32-13.83,4.43-20.93,5.73-6.21,1.14-12.65,1.5-18.98,1.37-5.09-.1-9.96-1.06-14.66-2.6-.85-.28-1.72-.52-2.6-.71-5.71-1.21-11.38-2.84-16.79-4.93-15.32-5.89-26.63-16.31-33.66-31.07-.12-.24-.23-.48-.34-.72-2.3-4.96-4.01-10.06-5.22-15.26-1-4.61-1.69-9.25-2.09-13.95h0c-.17-2.32-.26-4.65-.28-7-.22-33.49-.09-66.99-.15-100.48v-.13c.05-5.67.63-5.72,7.43-5.63,8.93.11,17.86.49,26.78.52,6.25.02,12.49-.25,18.73-.57,1.82-.09,2.77.31,3.22,1.32.03.3.04.62.04.98-.08,32.87-.16,65.75.06,98.63.01,2.11.15,4.25.4,6.38.02.8.03,1.59.05,2.38.08,3.29,1.05,6.69,2.23,9.81,3.89,10.34,11.92,13.1,22.65,12.39,7.28-.48,13.28-3.47,16.03-10.24.09-.22.18-.45.27-.67,1.2-2.33,1.97-5,2.36-7.92,0-.01,0-.02,0-.03.48-2.34.76-4.71.78-7.02.29-34.16.18-68.32.11-102.48,0-2.51.54-3.58,3.32-3.56,16.7.1,33.41.08,50.11.03,1.61,0,2.51.34,2.87,1.45.02.3.03.62.03.98-.07,34.16-.19,68.32.11,102.48.02,1.78.19,3.59.49,5.4,0,.21.01.43.02.64.5,11.73,6.19,20.28,19.74,21.01,10.56.57,18.95-2.72,22.08-13.5.31-1.06.59-2.13.84-3.22.62-2.09,1.06-4.25,1.15-6.37.29-2.29.45-4.58.46-6.85.22-32.88.14-65.75.06-98.63-.01-2.68.82-3.48,3.46-3.42,6.57.13,13.16.01,19.74.01,9.97,0,19.93.05,29.9.01,1.6,0,2.55.34,2.92,1.47.17.92.19,2.17.19,3.87-.06,34.01.08,68.03-.15,102.04Z"/>
  <circle class="cls-1" cx="332.87" cy="603.76" r="32.79"/>
  <path class="cls-1" d="m973.71,639.31c-50.53,0-91.64-41.11-91.64-91.64s41.11-91.64,91.64-91.64,91.64,41.11,91.64,91.64-41.11,91.64-91.64,91.64Zm0-131.58c-22.02,0-39.93,17.91-39.93,39.93s17.91,39.93,39.93,39.93,39.93-17.91,39.93-39.93-17.91-39.93-39.93-39.93Z"/>
  <path class="cls-1" d="m864.9,636.55c0,1.53-1.24,2.77-2.77,2.77h-112.03c-16.36,0-30.97-9.22-37.23-23.5-6.26-14.27-2.83-30.56,8.74-41.48l65.96-62.3c1.82-1.72.6-4.78-1.9-4.78h-69.17c-1.53,0-2.77-1.24-2.77-2.77v-46.24c0-1.53,1.24-2.77,2.77-2.77h111.2c16.36,0,30.97,9.22,37.23,23.5,6.26,14.27,2.83,30.56-8.74,41.48l-65.96,62.3c-1.82,1.72-.6,4.78,1.9,4.78h70c1.53,0,2.77,1.24,2.77,2.77v46.24Z"/>
  <path class="cls-1" d="m487.86,637.19c.02,1.56-1.25,2.83-2.81,2.81l-39.72-.65c-19.22-.17-37.25-7.68-50.8-21.14-13.58-13.5-21.07-31.42-21.07-50.45v-40.68c0-4.42-1.76-8.57-4.95-11.67-3.19-3.1-7.41-4.75-11.89-4.71l-53.9-.29c-1.53,0-2.76-1.25-2.75-2.78l.26-48.62c0-1.51,1.22-2.73,2.73-2.75l52.85-.77c19.57-.28,38.03,7.03,51.97,20.59,13.94,13.56,21.62,31.67,21.62,51v40.68c0,8.97,7.39,16.32,16.48,16.38h.27s38.34.66,38.34.66c1.5.03,2.7,1.24,2.72,2.73l.66,49.67Z"/>
  <circle class="cls-1" cx="536.97" cy="603.76" r="32.79"/>
  <path class="cls-1" d="m692.19,637.19c.02,1.56-1.25,2.83-2.81,2.81l-39.72-.65c-19.22-.17-37.25-7.68-50.8-21.14-13.58-13.5-21.07-31.42-21.07-50.45v-40.68c0-4.42-1.76-8.57-4.95-11.67-3.19-3.1-7.41-4.75-11.89-4.71l-53.9-.29c-1.53,0-2.76-1.25-2.75-2.78l.26-48.62c0-1.51,1.22-2.73,2.73-2.75l52.85-.77c19.57-.28,38.03,7.03,51.97,20.59,13.94,13.56,21.62,31.67,21.62,51v40.68c0,8.97,7.39,16.32,16.48,16.38h.27s38.34.66,38.34.66c1.5.03,2.7,1.24,2.72,2.73l.66,49.67Z"/>
</svg>